<svg width="32" height="32" viewBox="0 0 32 32" fill="none" xmlns="http://www.w3.org/2000/svg">
  <defs>
    <linearGradient id="iconGradient" x1="0%" y1="0%" x2="100%" y2="100%">
      <stop offset="0%" style="stop-color:#9333ea;stop-opacity:1" />
      <stop offset="50%" style="stop-color:#4f46e5;stop-opacity:1" />
      <stop offset="100%" style="stop-color:#0284c7;stop-opacity:1" />
    </linearGradient>
  </defs>

  <!-- Lightbulb -->
  <path d="M16 6 C12 6 9 9 9 13 C9 16 10 18 12 19.5 L12 22 L20 22 L20 19.5 C22 18 23 16 23 13 C23 9 20 6 16 6 Z"
        fill="url(#iconGradient)"/>

  <!-- Base -->
  <rect x="13" y="22" width="6" height="1.5" rx="0.5" fill="url(#iconGradient)" opacity="0.8"/>
  <rect x="14" y="23.5" width="4" height="2" rx="0.5" fill="url(#iconGradient)" opacity="0.6"/>

  <!-- Filament -->
  <path d="M14 12 L15 14 L16 12 L17 14 L18 12"
        stroke="white"
        stroke-width="0.8"
        stroke-linecap="round"
        fill="none"
        opacity="0.9"/>

  <!-- Sparkles -->
  <g transform="translate(16, 3)">
    <path d="M0,-1.5 L0.3,0 L0,1.5 L-0.3,0 Z" fill="#fbbf24"/>
    <path d="M-1.5,0 L0,0.3 L1.5,0 L0,-0.3 Z" fill="#fbbf24"/>
  </g>

  <g transform="translate(24, 10)">
    <path d="M0,-1 L0.2,0 L0,1 L-0.2,0 Z" fill="#fbbf24" opacity="0.7"/>
    <path d="M-1,0 L0,0.2 L1,0 L0,-0.2 Z" fill="#fbbf24" opacity="0.7"/>
  </g>

  <g transform="translate(8, 10)">
    <path d="M0,-1 L0.2,0 L0,1 L-0.2,0 Z" fill="#fbbf24" opacity="0.7"/>
    <path d="M-1,0 L0,0.2 L1,0 L0,-0.2 Z" fill="#fbbf24" opacity="0.7"/>
  </g>
</svg>
